<svg width="79" height="81" viewBox="0 0 79 81" fill="none" xmlns="http://www.w3.org/2000/svg">
<path d="M39.5 1C18.2708 1 1 18.5848 1 40.2C1 61.8152 18.2708 79.4 39.5 79.4C60.7292 79.4 78 61.8152 78 40.2C78 18.5848 60.7292 1 39.5 1ZM39.5 76.4963C19.8436 76.4963 3.85185 60.2138 3.85185 40.2C3.85185 20.1862 19.8436 3.9037 39.5 3.9037C59.1564 3.9037 75.1482 20.1862 75.1482 40.2C75.1482 60.2138 59.1564 76.4963 39.5 76.4963Z" fill="black" stroke="black" stroke-width="2"/>
<path d="M40.9258 39.5989V14.0666C40.9258 13.2652 40.287 12.6148 39.4999 12.6148C38.7128 12.6148 38.074 13.2652 38.074 14.0666V40.2C38.074 40.3887 38.1125 40.5774 38.1838 40.7546C38.2565 40.9317 38.3606 41.0928 38.4918 41.2264L52.751 55.7449C53.0291 56.028 53.3941 56.1703 53.7592 56.1703C54.1242 56.1703 54.4892 56.028 54.7673 55.7449C55.3248 55.1773 55.3248 54.2597 54.7673 53.692L40.9258 39.5989Z" fill="black" stroke="black" stroke-width="2"/>
</svg>
