<svg xmlns="http://www.w3.org/2000/svg" xmlns:xlink="http://www.w3.org/1999/xlink" version="1.1" x="0px" y="0px" viewBox="0 0 30 37.5" enable-background="new 0 0 30 30" xml:space="preserve"><path d="M15.7,15l5.1-5.1c0.2-0.2,0.2-0.5,0-0.7s-0.5-0.2-0.7,0L15,14.3L9.9,9.1C9.7,9,9.3,9,9.1,9.1S9,9.7,9.1,9.9l5.1,5.1  l-5.1,5.1c-0.2,0.2-0.2,0.5,0,0.7C9.2,21,9.4,21,9.5,21s0.3,0,0.4-0.1l5.1-5.1l5.1,5.1c0.1,0.1,0.2,0.1,0.4,0.1s0.3,0,0.4-0.1  c0.2-0.2,0.2-0.5,0-0.7L15.7,15z"/><text x="0" y="45" fill="#000000" font-size="5px" font-weight="bold" font-family="'Helvetica Neue', Helvetica, Arial-Unicode, Arial, Sans-serif">Created by Pierre Ragois</text><text x="0" y="50" fill="#000000" font-size="5px" font-weight="bold" font-family="'Helvetica Neue', Helvetica, Arial-Unicode, Arial, Sans-serif">from the Noun Project</text></svg>