<svg width="76" height="59" viewBox="0 0 76 59" fill="none" xmlns="http://www.w3.org/2000/svg">
<path d="M40.9034 59H0V53.3809L31.07 6.61065H0.991597V0H40.077V5.61905L9.007 52.3894H40.9034V59Z" fill="black"/>
<path d="M53.2187 0C60.9311 0 66.5502 1.51494 70.0759 4.54482C73.6015 7.5747 75.3644 11.8441 75.3644 17.3529C75.3644 20.6032 74.6207 23.6606 73.1333 26.5252C71.701 29.3347 69.2495 31.6209 65.7789 33.3838C62.3634 35.1466 57.7084 36.028 51.814 36.028H45.038V59H37.6011V0H53.2187ZM52.5577 6.36275H45.038V29.6653H50.9876C56.6067 29.6653 60.7934 28.7563 63.5478 26.9384C66.3023 25.1204 67.6795 22.0355 67.6795 17.6835C67.6795 13.8824 66.4676 11.0453 64.0436 9.17227C61.6197 7.29926 57.7911 6.36275 52.5577 6.36275Z" fill="black"/>
</svg>
