<svg width="77" height="96" viewBox="0 0 77 96" fill="none" xmlns="http://www.w3.org/2000/svg">
<path d="M76.9998 19.703C76.98 18.3938 76.5797 17.1186 75.8479 16.0329C75.116 14.9472 74.0842 14.0978 72.878 13.5883L42.6217 0.815394C39.9814 -0.271798 37.0184 -0.271798 34.3782 0.815394V0.815394L4.12177 13.5883C2.91564 14.0978 1.88377 14.9472 1.15191 16.0329C0.420063 17.1186 0.0198404 18.3938 2.30914e-05 19.703C2.30914e-05 19.703 2.30914e-05 19.9747 2.30914e-05 20.1106C2.30914e-05 20.2465 2.30914e-05 20.1106 2.30914e-05 20.3824V69.8887C-0.00419266 71.9766 0.568914 74.0249 1.65601 75.8074C2.7431 77.5899 4.30186 79.0372 6.16 79.9893L34.2876 94.3022C35.6105 94.8418 37.0258 95.1187 38.4546 95.1175V95.1175C40.0088 95.1116 41.5471 94.8039 42.984 94.2116L70.9304 79.9893C72.7716 79.0249 74.3119 77.5723 75.3825 75.7907C76.453 74.0091 77.0126 71.9672 76.9998 69.8887V20.3824C76.9998 20.3824 76.9998 20.3824 76.9998 20.1106C76.9998 19.8389 76.9998 19.8389 76.9998 19.703ZM36.2352 4.98244C37.6884 4.39798 39.3114 4.39798 40.7646 4.98244L71.1116 17.5742C71.5276 17.7488 71.8805 18.0461 72.1233 18.4265C72.3661 18.8068 72.4871 19.2521 72.4704 19.703C72.4842 20.1476 72.3614 20.5857 72.1184 20.9583C71.8754 21.3308 71.524 21.6199 71.1116 21.7865L60.9657 26.0441L24.4588 9.8289L36.2352 4.98244ZM5.88824 17.5742L18.7064 12.2295L54.9416 28.3994L40.7646 34.3782C40.0189 34.6892 39.2172 34.8434 38.4093 34.8312C37.6015 34.8434 36.7997 34.6892 36.054 34.3782L5.88824 21.7865C5.47581 21.6199 5.1244 21.3308 4.88142 20.9583C4.63844 20.5857 4.51558 20.1476 4.52942 19.703C4.51267 19.2521 4.63374 18.8068 4.87651 18.4265C5.11928 18.0461 5.4722 17.7488 5.88824 17.5742V17.5742ZM8.24353 75.9581C7.12056 75.3928 6.17782 74.525 5.52159 73.4527C4.86536 72.3803 4.52172 71.1459 4.52942 69.8887V26.1347L34.3782 38.5453C34.9773 38.7885 35.5995 38.9706 36.2352 39.0888V90.1804L8.24353 75.9581ZM68.7563 75.9581L41.0364 90.0898H40.7646V39.0888C41.4003 38.9706 42.0225 38.7885 42.6217 38.5453L72.4704 26.1347V69.8887C72.4781 71.1459 72.1344 72.3803 71.4782 73.4527C70.822 74.525 69.8792 75.3928 68.7563 75.9581Z" fill="black"/>
</svg>
