<svg width="399" height="375" viewBox="0 0 399 375" fill="none" xmlns="http://www.w3.org/2000/svg">
<ellipse cx="199.151" cy="187.5" rx="195.151" ry="183.5" stroke="black" stroke-width="7.5"/>
<path d="M152.668 101.132C146.527 101.132 141.325 103.263 137.064 107.524C132.803 111.785 129.669 117.676 127.664 125.196C127.288 125.697 126.599 125.948 125.596 125.948C124.719 125.948 123.779 125.76 122.776 125.384C121.773 125.008 121.147 124.695 120.896 124.444C122.525 120.183 123.779 115.483 124.656 110.344C125.659 105.08 126.411 99.3773 126.912 93.236C128.917 93.4867 131.299 93.8 134.056 94.176C136.939 94.4267 139.571 94.552 141.952 94.552H177.672C182.811 94.552 187.323 94.4893 191.208 94.364C195.093 94.2387 198.916 94.0507 202.676 93.8C206.561 93.5493 211.073 93.236 216.212 92.86C216.588 92.9853 217.215 93.4867 218.092 94.364C218.969 95.2413 219.408 96.056 219.408 96.808C219.408 96.9333 218.28 98.688 216.024 102.072C213.768 105.331 210.76 109.655 207 115.044C203.365 120.433 199.229 126.449 194.592 133.092C190.08 139.735 185.38 146.628 180.492 153.772C175.604 160.916 170.841 167.809 166.204 174.452C161.567 180.969 157.431 186.923 153.796 192.312C150.161 197.576 147.216 201.775 144.96 204.908C142.829 208.041 141.764 209.608 141.764 209.608H189.704C193.715 209.608 197.036 209.044 199.668 207.916C202.425 206.663 204.807 205.033 206.812 203.028C209.444 200.396 211.449 197.388 212.828 194.004C214.332 190.62 215.585 187.612 216.588 184.98C216.713 184.729 217.027 184.604 217.528 184.604C218.029 184.479 218.531 184.416 219.032 184.416C220.035 184.416 220.912 184.604 221.664 184.98C222.541 185.356 223.168 185.732 223.544 186.108C222.165 190.871 220.912 194.944 219.784 198.328C218.781 201.587 217.841 204.595 216.964 207.352C216.212 209.984 215.46 212.867 214.708 216H122.776C121.773 216 120.833 215.687 119.956 215.06C119.204 214.433 119.016 213.869 119.392 213.368L197.412 101.132H152.668Z" fill="black"/>
<path d="M304.128 216.016C304.128 223.411 302.436 229.928 299.052 235.568C295.668 241.083 290.905 245.407 284.764 248.54C278.748 251.548 271.729 253.052 263.708 253.052C262.705 253.052 261.389 252.927 259.76 252.676C258.131 252.425 256.815 252.049 255.812 251.548C255.561 251.297 255.06 250.859 254.308 250.232C253.556 249.48 253.18 248.54 253.18 247.412C253.18 246.66 253.493 246.347 254.12 246.472C255.123 246.723 256.188 247.036 257.316 247.412C258.444 247.663 259.697 247.788 261.076 247.788C268.471 247.788 274.675 245.344 279.688 240.456C284.701 235.443 287.208 228.361 287.208 219.212C287.208 210.063 284.701 202.731 279.688 197.216C274.675 191.701 267.092 188.944 256.94 188.944C255.812 188.944 254.057 189.007 251.676 189.132C249.42 189.257 248.104 189.759 247.728 190.636C247.227 191.764 246.913 193.707 246.788 196.464C246.788 199.096 246.788 201.791 246.788 204.548V282.756C246.788 285.513 246.788 288.083 246.788 290.464C246.913 292.845 247.227 294.788 247.728 296.292C247.979 296.919 248.981 297.483 250.736 297.984C252.491 298.485 254.308 298.861 256.188 299.112C258.193 299.237 259.572 299.3 260.324 299.3C260.7 299.801 260.888 300.679 260.888 301.932C261.013 303.185 260.825 304.063 260.324 304.564C256.564 304.313 252.929 304.125 249.42 304C246.036 303.749 242.527 303.624 238.892 303.624C235.383 303.624 231.811 303.749 228.176 304C224.667 304.125 221.032 304.313 217.272 304.564C216.771 304.063 216.52 303.185 216.52 301.932C216.645 300.679 216.896 299.801 217.272 299.3C218.024 299.3 219.34 299.237 221.22 299.112C223.225 298.861 225.105 298.485 226.86 297.984C228.74 297.483 229.743 296.919 229.868 296.292C230.369 294.788 230.62 292.845 230.62 290.464C230.745 288.083 230.808 285.513 230.808 282.756V204.36C230.808 201.603 230.745 199.033 230.62 196.652C230.62 194.145 230.369 192.14 229.868 190.636C229.743 189.884 228.74 189.32 226.86 188.944C225.105 188.568 223.225 188.317 221.22 188.192C219.34 187.941 218.024 187.816 217.272 187.816C216.896 187.315 216.645 186.437 216.52 185.184C216.52 183.931 216.771 183.053 217.272 182.552C221.032 182.677 224.667 182.865 228.176 183.116C231.811 183.241 235.383 183.304 238.892 183.304C242.527 183.304 246.412 183.241 250.548 183.116C254.809 182.991 259.635 182.928 265.024 182.928C271.541 182.928 277.745 184.244 283.636 186.876C289.652 189.383 294.54 193.08 298.3 197.968C302.185 202.856 304.128 208.872 304.128 216.016Z" fill="black"/>
</svg>
