<svg width="342" height="339" viewBox="0 0 342 339" fill="none" xmlns="http://www.w3.org/2000/svg">
<ellipse cx="171" cy="178" rx="167" ry="157" stroke="black" stroke-width="7.5"/>
<path d="M134.799 97.132C128.658 97.132 123.456 99.2627 119.195 103.524C114.934 107.785 111.8 113.676 109.795 121.196C109.419 121.697 108.73 121.948 107.727 121.948C106.85 121.948 105.91 121.76 104.907 121.384C103.904 121.008 103.278 120.695 103.027 120.444C104.656 116.183 105.91 111.483 106.787 106.344C107.79 101.08 108.542 95.3773 109.043 89.236C111.048 89.4867 113.43 89.8 116.187 90.176C119.07 90.4267 121.702 90.552 124.083 90.552H159.803C164.942 90.552 169.454 90.4893 173.339 90.364C177.224 90.2387 181.047 90.0507 184.807 89.8C188.692 89.5493 193.204 89.236 198.343 88.86C198.719 88.9853 199.346 89.4867 200.223 90.364C201.1 91.2413 201.539 92.056 201.539 92.808C201.539 92.9333 200.411 94.688 198.155 98.072C195.899 101.331 192.891 105.655 189.131 111.044C185.496 116.433 181.36 122.449 176.723 129.092C172.211 135.735 167.511 142.628 162.623 149.772C157.735 156.916 152.972 163.809 148.335 170.452C143.698 176.969 139.562 182.923 135.927 188.312C132.292 193.576 129.347 197.775 127.091 200.908C124.96 204.041 123.895 205.608 123.895 205.608H171.835C175.846 205.608 179.167 205.044 181.799 203.916C184.556 202.663 186.938 201.033 188.943 199.028C191.575 196.396 193.58 193.388 194.959 190.004C196.463 186.62 197.716 183.612 198.719 180.98C198.844 180.729 199.158 180.604 199.659 180.604C200.16 180.479 200.662 180.416 201.163 180.416C202.166 180.416 203.043 180.604 203.795 180.98C204.672 181.356 205.299 181.732 205.675 182.108C204.296 186.871 203.043 190.944 201.915 194.328C200.912 197.587 199.972 200.595 199.095 203.352C198.343 205.984 197.591 208.867 196.839 212H104.907C103.904 212 102.964 211.687 102.087 211.06C101.335 210.433 101.147 209.869 101.523 209.368L179.543 97.132H134.799Z" fill="black"/>
<path d="M266.117 193.553C266.117 200.947 264.425 207.465 261.041 213.105C257.657 218.619 252.894 222.943 246.753 226.077C240.737 229.085 233.718 230.589 225.697 230.589C224.694 230.589 223.378 230.463 221.749 230.213C220.12 229.962 218.804 229.586 217.801 229.085C217.55 228.834 217.049 228.395 216.297 227.769C215.545 227.017 215.169 226.077 215.169 224.949C215.169 224.197 215.482 223.883 216.109 224.009C217.112 224.259 218.177 224.573 219.305 224.949C220.433 225.199 221.686 225.325 223.065 225.325C230.46 225.325 236.664 222.881 241.677 217.993C246.69 212.979 249.197 205.898 249.197 196.749C249.197 187.599 246.69 180.267 241.677 174.753C236.664 169.238 229.081 166.481 218.929 166.481C217.801 166.481 216.046 166.543 213.665 166.669C211.409 166.794 210.093 167.295 209.717 168.173C209.216 169.301 208.902 171.243 208.777 174.001C208.777 176.633 208.777 179.327 208.777 182.085V260.293C208.777 263.05 208.777 265.619 208.777 268.001C208.902 270.382 209.216 272.325 209.717 273.829C209.968 274.455 210.97 275.019 212.725 275.521C214.48 276.022 216.297 276.398 218.177 276.649C220.182 276.774 221.561 276.837 222.313 276.837C222.689 277.338 222.877 278.215 222.877 279.469C223.002 280.722 222.814 281.599 222.313 282.101C218.553 281.85 214.918 281.662 211.409 281.537C208.025 281.286 204.516 281.161 200.881 281.161C197.372 281.161 193.8 281.286 190.165 281.537C186.656 281.662 183.021 281.85 179.261 282.101C178.76 281.599 178.509 280.722 178.509 279.469C178.634 278.215 178.885 277.338 179.261 276.837C180.013 276.837 181.329 276.774 183.209 276.649C185.214 276.398 187.094 276.022 188.849 275.521C190.729 275.019 191.732 274.455 191.857 273.829C192.358 272.325 192.609 270.382 192.609 268.001C192.734 265.619 192.797 263.05 192.797 260.293V181.897C192.797 179.139 192.734 176.57 192.609 174.189C192.609 171.682 192.358 169.677 191.857 168.173C191.732 167.421 190.729 166.857 188.849 166.481C187.094 166.105 185.214 165.854 183.209 165.729C181.329 165.478 180.013 165.353 179.261 165.353C178.885 164.851 178.634 163.974 178.509 162.721C178.509 161.467 178.76 160.59 179.261 160.089C183.021 160.214 186.656 160.402 190.165 160.653C193.8 160.778 197.372 160.841 200.881 160.841C204.516 160.841 208.401 160.778 212.537 160.653C216.798 160.527 221.624 160.465 227.013 160.465C233.53 160.465 239.734 161.781 245.625 164.413C251.641 166.919 256.529 170.617 260.289 175.505C264.174 180.393 266.117 186.409 266.117 193.553Z" fill="black"/>
</svg>
