<svg width="391" height="367" viewBox="0 0 391 367" fill="none" xmlns="http://www.w3.org/2000/svg">
<path d="M388.052 183.5C388.052 283.473 301.819 364.75 195.151 364.75C88.4821 364.75 2.25 283.473 2.25 183.5C2.25 83.5269 88.4821 2.25 195.151 2.25C301.819 2.25 388.052 83.5269 388.052 183.5Z" fill="white" stroke="black" stroke-width="4.5"/>
<path d="M148.668 97.132C142.527 97.132 137.325 99.2627 133.064 103.524C128.803 107.785 125.669 113.676 123.664 121.196C123.288 121.697 122.599 121.948 121.596 121.948C120.719 121.948 119.779 121.76 118.776 121.384C117.773 121.008 117.147 120.695 116.896 120.444C118.525 116.183 119.779 111.483 120.656 106.344C121.659 101.08 122.411 95.3773 122.912 89.236C124.917 89.4867 127.299 89.8 130.056 90.176C132.939 90.4267 135.571 90.552 137.952 90.552H173.672C178.811 90.552 183.323 90.4893 187.208 90.364C191.093 90.2387 194.916 90.0507 198.676 89.8C202.561 89.5493 207.073 89.236 212.212 88.86C212.588 88.9853 213.215 89.4867 214.092 90.364C214.969 91.2413 215.408 92.056 215.408 92.808C215.408 92.9333 214.28 94.688 212.024 98.072C209.768 101.331 206.76 105.655 203 111.044C199.365 116.433 195.229 122.449 190.592 129.092C186.08 135.735 181.38 142.628 176.492 149.772C171.604 156.916 166.841 163.809 162.204 170.452C157.567 176.969 153.431 182.923 149.796 188.312C146.161 193.576 143.216 197.775 140.96 200.908C138.829 204.041 137.764 205.608 137.764 205.608H185.704C189.715 205.608 193.036 205.044 195.668 203.916C198.425 202.663 200.807 201.033 202.812 199.028C205.444 196.396 207.449 193.388 208.828 190.004C210.332 186.62 211.585 183.612 212.588 180.98C212.713 180.729 213.027 180.604 213.528 180.604C214.029 180.479 214.531 180.416 215.032 180.416C216.035 180.416 216.912 180.604 217.664 180.98C218.541 181.356 219.168 181.732 219.544 182.108C218.165 186.871 216.912 190.944 215.784 194.328C214.781 197.587 213.841 200.595 212.964 203.352C212.212 205.984 211.46 208.867 210.708 212H118.776C117.773 212 116.833 211.687 115.956 211.06C115.204 210.433 115.016 209.869 115.392 209.368L193.412 97.132H148.668Z" fill="black"/>
<path d="M300.128 212.016C300.128 219.411 298.436 225.928 295.052 231.568C291.668 237.083 286.905 241.407 280.764 244.54C274.748 247.548 267.729 249.052 259.708 249.052C258.705 249.052 257.389 248.927 255.76 248.676C254.131 248.425 252.815 248.049 251.812 247.548C251.561 247.297 251.06 246.859 250.308 246.232C249.556 245.48 249.18 244.54 249.18 243.412C249.18 242.66 249.493 242.347 250.12 242.472C251.123 242.723 252.188 243.036 253.316 243.412C254.444 243.663 255.697 243.788 257.076 243.788C264.471 243.788 270.675 241.344 275.688 236.456C280.701 231.443 283.208 224.361 283.208 215.212C283.208 206.063 280.701 198.731 275.688 193.216C270.675 187.701 263.092 184.944 252.94 184.944C251.812 184.944 250.057 185.007 247.676 185.132C245.42 185.257 244.104 185.759 243.728 186.636C243.227 187.764 242.913 189.707 242.788 192.464C242.788 195.096 242.788 197.791 242.788 200.548V278.756C242.788 281.513 242.788 284.083 242.788 286.464C242.913 288.845 243.227 290.788 243.728 292.292C243.979 292.919 244.981 293.483 246.736 293.984C248.491 294.485 250.308 294.861 252.188 295.112C254.193 295.237 255.572 295.3 256.324 295.3C256.7 295.801 256.888 296.679 256.888 297.932C257.013 299.185 256.825 300.063 256.324 300.564C252.564 300.313 248.929 300.125 245.42 300C242.036 299.749 238.527 299.624 234.892 299.624C231.383 299.624 227.811 299.749 224.176 300C220.667 300.125 217.032 300.313 213.272 300.564C212.771 300.063 212.52 299.185 212.52 297.932C212.645 296.679 212.896 295.801 213.272 295.3C214.024 295.3 215.34 295.237 217.22 295.112C219.225 294.861 221.105 294.485 222.86 293.984C224.74 293.483 225.743 292.919 225.868 292.292C226.369 290.788 226.62 288.845 226.62 286.464C226.745 284.083 226.808 281.513 226.808 278.756V200.36C226.808 197.603 226.745 195.033 226.62 192.652C226.62 190.145 226.369 188.14 225.868 186.636C225.743 185.884 224.74 185.32 222.86 184.944C221.105 184.568 219.225 184.317 217.22 184.192C215.34 183.941 214.024 183.816 213.272 183.816C212.896 183.315 212.645 182.437 212.52 181.184C212.52 179.931 212.771 179.053 213.272 178.552C217.032 178.677 220.667 178.865 224.176 179.116C227.811 179.241 231.383 179.304 234.892 179.304C238.527 179.304 242.412 179.241 246.548 179.116C250.809 178.991 255.635 178.928 261.024 178.928C267.541 178.928 273.745 180.244 279.636 182.876C285.652 185.383 290.54 189.08 294.3 193.968C298.185 198.856 300.128 204.872 300.128 212.016Z" fill="black"/>
</svg>
