<svg width="215" height="283" viewBox="0 0 215 283" fill="none" xmlns="http://www.w3.org/2000/svg">
<path d="M39.7989 97.132C33.6575 97.132 28.4562 99.2627 24.1949 103.524C19.9335 107.785 16.8002 113.676 14.7949 121.196C14.4189 121.697 13.7295 121.948 12.7269 121.948C11.8495 121.948 10.9095 121.76 9.90686 121.384C8.90419 121.008 8.27753 120.695 8.02686 120.444C9.65619 116.183 10.9095 111.483 11.7869 106.344C12.7895 101.08 13.5415 95.3773 14.0429 89.236C16.0482 89.4867 18.4295 89.8 21.1869 90.176C24.0695 90.4267 26.7015 90.552 29.0829 90.552H64.8029C69.9415 90.552 74.4535 90.4893 78.3389 90.364C82.2242 90.2387 86.0469 90.0507 89.8069 89.8C93.6922 89.5493 98.2042 89.236 103.343 88.86C103.719 88.9853 104.346 89.4867 105.223 90.364C106.1 91.2413 106.539 92.056 106.539 92.808C106.539 92.9333 105.411 94.688 103.155 98.072C100.899 101.331 97.8909 105.655 94.1309 111.044C90.4962 116.433 86.3602 122.449 81.7229 129.092C77.2109 135.735 72.5109 142.628 67.6229 149.772C62.7349 156.916 57.9722 163.809 53.3349 170.452C48.6975 176.969 44.5615 182.923 40.9269 188.312C37.2922 193.576 34.3469 197.775 32.0909 200.908C29.9602 204.041 28.8949 205.608 28.8949 205.608H76.8349C80.8455 205.608 84.1669 205.044 86.7989 203.916C89.5562 202.663 91.9375 201.033 93.9429 199.028C96.5749 196.396 98.5802 193.388 99.9589 190.004C101.463 186.62 102.716 183.612 103.719 180.98C103.844 180.729 104.158 180.604 104.659 180.604C105.16 180.479 105.662 180.416 106.163 180.416C107.166 180.416 108.043 180.604 108.795 180.98C109.672 181.356 110.299 181.732 110.675 182.108C109.296 186.871 108.043 190.944 106.915 194.328C105.912 197.587 104.972 200.595 104.095 203.352C103.343 205.984 102.591 208.867 101.839 212H9.90686C8.90419 212 7.96419 211.687 7.08686 211.06C6.33486 210.433 6.14686 209.869 6.52286 209.368L84.5429 97.132H39.7989Z" fill="black"/>
<path d="M171.117 193.553C171.117 200.947 169.425 207.465 166.041 213.105C162.657 218.619 157.894 222.943 151.753 226.077C145.737 229.085 138.718 230.589 130.697 230.589C129.694 230.589 128.378 230.463 126.749 230.213C125.12 229.962 123.804 229.586 122.801 229.085C122.55 228.834 122.049 228.395 121.297 227.769C120.545 227.017 120.169 226.077 120.169 224.949C120.169 224.197 120.482 223.883 121.109 224.009C122.112 224.259 123.177 224.573 124.305 224.949C125.433 225.199 126.686 225.325 128.065 225.325C135.46 225.325 141.664 222.881 146.677 217.993C151.69 212.979 154.197 205.898 154.197 196.749C154.197 187.599 151.69 180.267 146.677 174.753C141.664 169.238 134.081 166.481 123.929 166.481C122.801 166.481 121.046 166.543 118.665 166.669C116.409 166.794 115.093 167.295 114.717 168.173C114.216 169.301 113.902 171.243 113.777 174.001C113.777 176.633 113.777 179.327 113.777 182.085V260.293C113.777 263.05 113.777 265.619 113.777 268.001C113.902 270.382 114.216 272.325 114.717 273.829C114.968 274.455 115.97 275.019 117.725 275.521C119.48 276.022 121.297 276.398 123.177 276.649C125.182 276.774 126.561 276.837 127.313 276.837C127.689 277.338 127.877 278.215 127.877 279.469C128.002 280.722 127.814 281.599 127.313 282.101C123.553 281.85 119.918 281.662 116.409 281.537C113.025 281.286 109.516 281.161 105.881 281.161C102.372 281.161 98.7997 281.286 95.165 281.537C91.6557 281.662 88.021 281.85 84.261 282.101C83.7597 281.599 83.509 280.722 83.509 279.469C83.6343 278.215 83.885 277.338 84.261 276.837C85.013 276.837 86.329 276.774 88.209 276.649C90.2143 276.398 92.0943 276.022 93.849 275.521C95.729 275.019 96.7317 274.455 96.857 273.829C97.3583 272.325 97.609 270.382 97.609 268.001C97.7343 265.619 97.797 263.05 97.797 260.293V181.897C97.797 179.139 97.7343 176.57 97.609 174.189C97.609 171.682 97.3583 169.677 96.857 168.173C96.7317 167.421 95.729 166.857 93.849 166.481C92.0943 166.105 90.2143 165.854 88.209 165.729C86.329 165.478 85.013 165.353 84.261 165.353C83.885 164.851 83.6343 163.974 83.509 162.721C83.509 161.467 83.7597 160.59 84.261 160.089C88.021 160.214 91.6557 160.402 95.165 160.653C98.7997 160.778 102.372 160.841 105.881 160.841C109.516 160.841 113.401 160.778 117.537 160.653C121.798 160.527 126.624 160.465 132.013 160.465C138.53 160.465 144.734 161.781 150.625 164.413C156.641 166.919 161.529 170.617 165.289 175.505C169.174 180.393 171.117 186.409 171.117 193.553Z" fill="black"/>
</svg>
