<svg width="163" height="123" viewBox="0 0 163 123" fill="none" xmlns="http://www.w3.org/2000/svg">
<path d="M33.464 7.896C27.3227 7.896 22.1213 10.0267 17.86 14.288C13.5987 18.5493 10.4653 24.44 8.46 31.96C8.084 32.4613 7.39467 32.712 6.392 32.712C5.51467 32.712 4.57467 32.524 3.572 32.148C2.56933 31.772 1.94267 31.4587 1.692 31.208C3.32133 26.9467 4.57467 22.2467 5.452 17.108C6.45467 11.844 7.20667 6.14134 7.708 0C9.71333 0.250671 12.0947 0.564007 14.852 0.94001C17.7347 1.19067 20.3667 1.316 22.748 1.316H58.468C63.6067 1.316 68.1187 1.25334 72.004 1.12801C75.8893 1.00267 85.0359 1.01468 88.7959 0.764007C92.7959 2.26401 100.277 3.636 105.416 3.26C105.792 3.38533 106.419 3.88667 107.296 4.76401C108.173 5.64134 108.612 6.456 108.612 7.20801C108.612 7.33334 99.076 5.452 96.82 8.83601C94.564 12.0947 91.556 16.4187 87.796 21.808C84.1613 27.1973 80.0253 33.2133 75.388 39.856C70.876 46.4987 66.176 53.392 61.288 60.536C56.4 67.68 51.6373 74.5733 47 81.216C42.3627 87.7333 38.2267 93.6867 34.592 99.076C30.9573 104.34 28.012 108.539 25.756 111.672C23.6253 114.805 22.56 116.372 22.56 116.372H70.5C74.5107 116.372 77.832 115.808 80.464 114.68C83.2213 113.427 85.6027 111.797 87.608 109.792C90.24 107.16 92.2453 104.152 93.624 100.768C95.128 97.384 96.3813 94.376 97.384 91.744C97.5093 91.4933 97.8227 91.368 98.324 91.368C98.8253 91.2427 99.3267 91.18 99.828 91.18C100.831 91.18 101.708 91.368 102.46 91.744C103.337 92.12 103.964 92.496 104.34 92.872C102.961 97.6347 101.708 101.708 100.58 105.092C99.5773 108.351 98.6373 111.359 97.76 114.116C97.008 116.748 96.256 119.631 95.504 122.764H3.572C2.56933 122.764 1.62933 122.451 0.752 121.824C1.78814e-07 121.197 -0.188 120.633 0.188 120.132L78.208 7.896H33.464Z" fill="black"/>
<path d="M162.796 34.9505C162.796 42.2838 161.097 48.7471 157.697 54.3403C154.298 59.8092 149.514 64.0973 143.345 67.2047C137.303 70.1877 130.252 71.6793 122.195 71.6793C121.188 71.6793 119.866 71.555 118.23 71.3064C116.593 71.0578 115.271 70.6849 114.264 70.1877C114.012 69.9391 113.509 69.5041 112.753 68.8827C111.998 68.1369 111.62 67.2047 111.62 66.086C111.62 65.3403 111.935 65.0296 112.564 65.1538C113.571 65.4024 114.642 65.7132 115.775 66.086C116.908 66.3346 118.167 66.4589 119.551 66.4589C126.979 66.4589 133.211 64.0352 138.247 59.1877C143.282 54.216 145.8 47.1934 145.8 38.1199C145.8 29.0465 143.282 21.7753 138.247 16.3064C133.211 10.8375 125.594 8.10299 115.397 8.10299C114.264 8.10299 112.501 8.16513 110.109 8.28943C107.843 8.41372 106.521 8.91089 106.144 9.78095C105.64 10.8996 105.325 12.8262 105.2 15.5606C105.2 18.1708 105.2 20.8431 105.2 23.5776V101.137C105.2 103.871 105.2 106.419 105.2 108.781C105.325 111.143 105.64 113.069 106.144 114.561C106.396 115.182 107.403 115.741 109.165 116.239C110.928 116.736 112.753 117.109 114.642 117.357C116.656 117.482 118.041 117.544 118.796 117.544C119.174 118.041 119.363 118.911 119.363 120.154C119.489 121.397 119.3 122.267 118.796 122.764C115.019 122.515 108.403 122.764 108.403 122.764H99.2961C99.2961 122.764 97.8736 122.765 94.7961 122.764C93.804 122.764 92.6399 122.762 91.2961 122.764C90.57 122.765 89.7915 122.8 88.9592 122.764C85.4342 122.888 79.3283 122.515 75.5515 122.764C75.0479 122.267 74.7961 121.397 74.7961 120.154C74.922 118.911 75.1738 118.041 75.5515 117.544C76.3068 117.544 77.6287 117.482 79.5171 117.357C81.5314 117.109 83.4198 116.736 85.1824 116.239C87.0708 115.741 88.0779 115.182 88.2038 114.561C88.7074 113.069 88.9592 111.143 88.9592 108.781C89.0851 106.419 89.148 103.871 89.148 101.137V23.3911C89.148 20.6567 89.0851 18.1086 88.9592 15.7471C88.9592 13.2612 88.7074 11.2725 88.2038 9.78095C88.0779 9.03519 87.0708 8.47587 85.1824 8.10299C83.4198 7.73011 81.5314 7.48152 79.5171 7.35722C77.6287 7.10863 76.3068 6.98435 75.5515 6.98435C75.1738 6.48717 74.922 5.61711 74.7961 4.37417C74.7961 3.13123 18.8176 3.26118 15.7961 2.76401C19.5557 2.76401 7.82614 0.922803 10.2959 0.764007C11.7842 0.668319 87.4707 0.670535 88.7961 0.764007C90.3712 0.817631 92.7961 0.764006 95.2961 0.764007C98.2961 0.764007 101.296 0.764007 101.296 0.764007C104.947 0.764007 108.142 0.888299 112.296 0.764007C116.577 0.639707 117.796 0.764006 123.296 0.764007C129.843 0.764007 136.295 3.44197 142.212 6.05214C148.255 8.53802 153.165 12.2047 156.942 17.0521C160.845 21.8996 162.796 27.8657 162.796 34.9505Z" fill="black"/>
</svg>
