<svg width="184" height="144" viewBox="0 0 184 144" fill="none" xmlns="http://www.w3.org/2000/svg">
<path d="M99.99 144.228H0V130.492L75.952 16.16H2.424V0H97.97V13.736L22.018 128.068H99.99V144.228Z" fill="black"/>
<path d="M130.096 0C148.949 0 162.685 3.70333 171.304 11.11C179.923 18.5167 184.232 28.9533 184.232 42.42C184.232 50.3653 182.414 57.8393 178.778 64.842C175.277 71.71 169.284 77.2987 160.8 81.608C152.451 85.9173 141.071 88.072 126.662 88.072H110.098V144.228H91.918V0H130.096ZM128.48 15.554H110.098V72.518H124.642C138.378 72.518 148.613 70.296 155.346 65.852C162.079 61.408 165.446 53.8667 165.446 43.228C165.446 33.936 162.483 27.0007 156.558 22.422C150.633 17.8433 141.273 15.554 128.48 15.554Z" fill="black"/>
</svg>
