<svg width="114" height="90" viewBox="0 0 114 90" fill="none" xmlns="http://www.w3.org/2000/svg">
<path d="M61.8724 89.2462H0V80.7466L46.998 9.99959H1.49994V0H60.6225V8.49965L13.6244 79.2467H61.8724V89.2462Z" fill="black"/>
<path d="M80.501 0C92.1671 0 100.667 2.29157 106 6.87471C111.333 11.4579 114 17.9159 114 26.2489C114 31.1654 112.875 35.7902 110.625 40.1233C108.458 44.3731 104.75 47.8313 99.5002 50.4979C94.3337 53.1644 87.2923 54.4977 78.376 54.4977H68.1265V89.2462H56.877V0H80.501ZM79.501 9.6246H68.1265V44.8731H77.1261C85.6257 44.8731 91.9588 43.4982 96.1253 40.7483C100.292 37.9984 102.375 33.3319 102.375 26.7489C102.375 20.9991 100.542 16.7076 96.8753 13.8744C93.2088 11.0412 87.4173 9.6246 79.501 9.6246Z" fill="black"/>
</svg>
